<svg id="Layer_1" data-name="Layer 1" xmlns="http://www.w3.org/2000/svg" width="1430.3119" height="257.3134" viewBox="0 0 1430.3119 257.3134"><defs><style>.cls-1{fill:#fff;}.cls-2{opacity:0.1;}</style></defs><path class="cls-1" d="M382.2351,113.3679c-5.703,5.622-13.0683,8.2374-21.0677,8.2374-20.5925,0-29.304-14.1774-29.384-28.5919-.079-14.4954,9.3466-29.226,29.384-29.226a28.5981,28.5981,0,0,1,20.3545,8.4745l-6.9692,6.7321a19.0494,19.0494,0,0,0-13.3853-5.2269c-13.3852,0-19.1663,9.98-19.0872,19.2463.079,9.1876,5.3859,18.77,19.0872,18.77a20.4078,20.4078,0,0,0,13.9394-5.6239Z"/><path class="cls-1" d="M474.2794,92.9344c-.158,14.3354-8.9495,28.6709-28.4329,28.6709s-28.5129-14.0194-28.5129-28.5919c0-14.5744,9.3466-29.226,28.5129-29.226C464.9338,63.7874,474.4384,78.439,474.2794,92.9344Zm-46.649.237c.237,9.1086,5.1479,18.8493,18.2161,18.8493s17.9781-9.82,18.1371-18.9283c.1581-9.3456-5.0689-19.8013-18.1371-19.8013S427.3923,83.8258,427.63,93.1714Z"/><path class="cls-1" d="M550.0889,64.8166h10.4548v55.5205H554.05v.079l-29.146-37.4614v37.3824H514.4488V64.8956h8.4744L550.0889,99.27Z"/><path class="cls-1" d="M616.1577,74.4012h-17.583V64.8956h45.62v9.5056h-17.582v45.9359H616.1577Z"/><path class="cls-1" d="M723.5677,120.3371H682.0665V64.8956h41.5012V75.0334H692.4413V87.7846h30.0172v9.7426H692.4413v12.5141h31.1264Z"/><path class="cls-1" d="M801.4346,64.8166h10.4548v55.5205h-6.4942v.079l-29.146-37.4614v37.3824H765.7944V64.8956h8.4745L801.4346,99.27Z"/><path class="cls-1" d="M867.5034,74.4012H849.9213V64.8956h45.6208v9.5056h-17.583v45.9359H867.5034Z"/><path class="cls-1" d="M982.3586,92.1423c.2371,14.0174-8.3164,28.1948-27.7208,28.1948H932.859V64.8956h21.7788C973.6471,64.8956,982.1215,78.439,982.3586,92.1423Zm-39.1247,18.1361h11.4039c12.5932,0,17.5831-9.1876,17.346-18.2152-.2371-8.6344-5.3059-17.2669-17.346-17.2669H943.2339Z"/><path class="cls-1" d="M1062.2868,120.3371h-41.5011V64.8956h41.5011V75.0334h-31.1263V87.7846h30.0162v9.7426h-30.0162v12.5141h31.1263Z"/><path class="cls-1" d="M1137.9363,78.2809c-1.9-3.1685-7.1291-6.1771-13.1482-6.1771-7.7613,0-11.483,3.2476-11.483,7.3663,0,4.83,5.701,6.1771,12.3542,6.9692,11.5639,1.4262,22.3358,4.4348,22.3358,17.662,0,12.3542-10.93,17.662-23.286,17.662-11.325,0-20.0384-3.4846-24.1552-13.6223l8.7115-4.5157c2.4554,6.098,8.87,8.7924,15.6017,8.7924,6.5741,0,12.7512-2.2973,12.7512-8.3164,0-5.2269-5.4639-7.3662-12.83-8.1584-11.325-1.3452-21.7788-4.3557-21.7788-16.7908,0-11.404,11.246-16.0778,21.4627-16.1568,8.6325,0,17.583,2.4554,21.7808,11.0089Z"/><path class="cls-1" d="M1232.279,65.2136l-24.6332,26.5316,26.6916,27.9578v.6341h-12.9092l-23.207-24.5522v24.5522h-10.4538V64.8956h10.4538V88.34l21.0676-23.444h12.99Z"/><path class="cls-1" d="M1281.794,115.3473c0,7.5243-11.4059,7.5243-11.4059,0S1281.794,107.823,1281.794,115.3473Z"/><path class="cls-1" d="M1322.2717,120.3371V64.8956h10.3768v55.4415Z"/><path class="cls-1" d="M1430.3119,92.9344c-.158,14.3354-8.9486,28.6709-28.4338,28.6709-19.4834,0-28.511-14.0194-28.511-28.5919,0-14.5744,9.3456-29.226,28.511-29.226C1420.9663,63.7874,1430.47,78.439,1430.3119,92.9344Zm-46.649.237c.237,9.1086,5.1479,18.8493,18.2152,18.8493,13.0692,0,17.98-9.82,18.138-18.9283.1581-9.3456-5.0688-19.8013-18.138-19.8013C1388.8108,73.2911,1383.4258,83.8258,1383.6629,93.1714Z"/><path class="cls-1" d="M453.1526,176.9725l-16.2168-24.89v-.06h3.7422l14.0786,21.86,14.1377-21.86h3.7422v.06l-16.2763,24.89v16.6328h-3.2076Z"/><path class="cls-1" d="M534.0643,172.8738c-.06,10.93-7.01,21.4444-20.97,21.4444s-20.9687-10.5733-20.9687-21.5635c0-11.167,6.95-21.3848,20.9687-21.3848S534.1238,161.6463,534.0643,172.8738Zm-38.79-.06c.06,9.3858,6,18.5342,17.82,18.5342,11.8809,0,17.8809-9.1484,17.8809-18.5342,0-9.623-5.94-18.4736-17.8809-18.4736S495.2146,163.0135,495.2742,172.8142Z"/><path class="cls-1" d="M588.9578,152.0232v25.8409c0,21.7412-31.84,21.8-31.84,0V152.0232h3.1484v25.8409c0,17.88,25.543,17.82,25.543,0V152.0232Z"/><path class="cls-1" d="M646.3465,193.6053h-4.2178l-14.375-15.7412H616.408v15.7412H613.2V152.0232h18.2959c9.0293,0,13.6035,6.4756,13.6621,12.95.06,6.7715-4.3955,12.7119-13.4844,12.7119ZM616.408,174.8338H631.14c7.247,0,10.455-4.0987,10.5136-9.92.06-4.8711-3.2666-9.92-10.1572-9.92H616.408Z"/><path class="cls-1" d="M733.7947,172.34c.2373,10.5733-6.5342,21.2657-21.0879,21.2657H698.6287V152.0232h14.0781C726.785,152.0232,733.5574,162.1219,733.7947,172.34Zm-31.958-17.2861v35.4629h10.87c12.3555,0,18.0586-9.2666,17.88-18.1768-.1777-8.6728-5.8808-17.2861-17.88-17.2861Z"/><path class="cls-1" d="M789.58,193.6053l-4.5733-10.2168h-24.831l-4.5147,10.2168h-3.4453l18.6524-41.5821h3.5049l18.6523,41.5821Zm-5.8213-13.1875-11.168-25.3057-11.167,25.3057Z"/><path class="cls-1" d="M818.8113,154.9344H803.782v-2.8516h33.2657v2.8516H822.0193v38.6709h-3.208Z"/><path class="cls-1" d="M891.6424,193.6053l-4.5733-10.2168h-24.831l-4.5147,10.2168h-3.4453l18.6524-41.5821h3.5049l18.6523,41.5821Zm-5.8213-13.1875-11.168-25.3057-11.167,25.3057Z"/><path class="cls-1" d="M977.785,163.3689a9.1319,9.1319,0,0,1-6.7715,8.9112,10.6406,10.6406,0,0,1,8.1972,10.4541c0,8.5547-7.96,10.8711-15.0888,10.8711H947.074V152.0232h17.0479C971.1316,152.0232,977.785,155.4685,977.785,163.3689Zm-27.503,7.4854h14.2559c4.99,0,10.2178-1.5449,10.2178-7.4854,0-6.0586-5.4649-8.6132-10.6338-8.6132h-13.84Zm0,19.6621h13.84c5.2275,0,11.94-1.2471,11.94-7.8408-.06-6.4756-5.94-8.792-11.5244-8.792H950.282Z"/><path class="cls-1" d="M1034.1629,152.0232v25.8409c0,21.7412-31.84,21.8-31.84,0V152.0232h3.1485v25.8409c0,17.88,25.543,17.82,25.543,0V152.0232Z"/><path class="cls-1" d="M1070.1668,154.9344h-15.0293v-2.8516h33.2656v2.8516h-15.0283v38.6709h-3.208Z"/><path class="cls-1" d="M1113.12,152.0232V190.576h23.4043v3.0293h-26.6123V152.0232Z"/><path class="cls-1" d="M1161.1805,171.2107h24.3545v2.91h-24.3545v16.3955h26.2558v3.0889H1158.032V152.0232h28.6914v3.03h-25.5429Z"/><path class="cls-1" d="M1243.1609,193.6053h-4.2177l-14.375-15.7412h-11.3457v15.7412h-3.208V152.0232H1228.31c9.0292,0,13.6035,6.4756,13.6621,12.95.0595,6.7715-4.3955,12.7119-13.4844,12.7119Zm-29.9384-18.7715h14.7314c7.2471,0,10.4551-4.0987,10.5137-9.92.06-4.8711-3.2666-9.92-10.1572-9.92h-15.0879Z"/><path class="cls-1" d="M28.425,95.1042.1542,95.6589C10.7051,181.0242,113.807,257.3134,113.807,257.3134c-20.66-26.3154-40.0295-81.7575-46.63-126.766-8.1079-55.2856-.862-98.5756-.862-98.5756C31.0694,45.07,4.5113,72.9015,0,77.8217Z"/><path class="cls-1" d="M229.5087,89.7477l26.2461,5.9112C245.204,181.0242,142.102,257.3134,142.102,257.3134c46.0376-58.64,47.4922-225.3416,47.4922-225.3416,35.2454,13.098,61.8035,40.93,66.3149,45.85Z"/><circle class="cls-1" cx="127.9545" cy="166.05" r="14.3883"/><circle class="cls-1" cx="127.9545" cy="121.5616" r="14.3883"/><circle class="cls-1" cx="127.9545" cy="77.0732" r="14.3883"/><path class="cls-1" d="M173.2163,6.4077V42.2929c0,4.9154-7.9615,8.0007-14.328,5.543l-24.211-9.36c-.3138-.1176-.6406-.2353-.9675-.34a15.8947,15.8947,0,0,0-1.9216-.4837,2.6934,2.6934,0,0,0-.3138-.0654,19.3343,19.3343,0,0,0-4.6017-.2744h-.0391c-.3923.0261-.7845.0653-1.1766.1045a6.5971,6.5971,0,0,0-.7321.0915,16.3118,16.3118,0,0,0-1.8041.3661,14.8073,14.8073,0,0,0-1.8694.5882l-3.9872,1.5427-20.237,7.8307c-6.38,2.4577-14.3279-.6276-14.3279-5.543V6.4077c0-4.9285,7.9483-8.0006,14.3279-5.5429l20.25,7.8307,3.9611,1.53a14.3586,14.3586,0,0,0,1.8825.5883,16.3382,16.3382,0,0,0,1.8041.3791,6.5971,6.5971,0,0,0,.7321.0915c.3921.0523.7843.0784,1.1766.1046h.0391a19.3344,19.3344,0,0,0,4.6017-.2745c.1046-.0262.2092-.0392.3138-.0654a18.779,18.779,0,0,0,1.9216-.4968c.3269-.0915.6537-.2091.9675-.3268l24.211-9.36C165.2548-1.5929,173.2163,1.4792,173.2163,6.4077Z"/><g class="cls-2"><path class="cls-1" d="M131.7882,11.0486c-.1046.0262-.2092.0392-.3138.0654a19.3344,19.3344,0,0,1-4.6017.2745h-.0391c-.3923-.0262-.7845-.0523-1.1766-.1046a6.5971,6.5971,0,0,1-.7321-.0915,16.3382,16.3382,0,0,1-1.8041-.3791,56.0915,56.0915,0,0,1,1.4511,13.5305,56.0921,56.0921,0,0,1-1.4511,13.53,16.3118,16.3118,0,0,1,1.8041-.3661,6.5971,6.5971,0,0,1,.7321-.0915c.3921-.0392.7843-.0784,1.1766-.1045h.0391a19.3343,19.3343,0,0,1,4.6017.2744,2.6934,2.6934,0,0,1,.3138.0654,78.5207,78.5207,0,0,0,1.072-13.3082A78.3649,78.3649,0,0,0,131.7882,11.0486Z"/></g></svg>